<?xml version="1.0" encoding="utf-8"?>
<!-- Generator: Adobe Illustrator 22.1.0, SVG Export Plug-In . SVG Version: 6.00 Build 0)  -->
<svg version="1.1"
	 id="Capa_1" xmlns:cc="http://creativecommons.org/ns#" xmlns:dc="http://purl.org/dc/elements/1.1/" xmlns:inkscape="http://www.inkscape.org/namespaces/inkscape" xmlns:rdf="http://www.w3.org/1999/02/22-rdf-syntax-ns#" xmlns:sodipodi="http://sodipodi.sourceforge.net/DTD/sodipodi-0.dtd" xmlns:svg="http://www.w3.org/2000/svg"
	 xmlns="http://www.w3.org/2000/svg" xmlns:xlink="http://www.w3.org/1999/xlink" x="0px" y="0px" viewBox="0 0 141.7 141.7"
	 style="enable-background:new 0 0 141.7 141.7;" xml:space="preserve">
<style type="text/css">
	.st0{opacity:1;enable-background:new    ;}
	.st1{fill:#abb0b2;}
</style>
<g transform="translate(0,-288.53332)" class="st0">
	<path class="st1" d="M13.5,316.4c-5.3,0-9.6,4.3-9.6,9.6l0,0v66.9c0,5.3,4.3,9.6,9.6,9.6l0,0h114.7c5.3,0,9.6-4.3,9.6-9.6l0,0
		v-66.9c0-5.3-4.3-9.6-9.6-9.6l0,0H13.5z M13.5,321.2h114.7c2.6,0,4.8,2.1,4.8,4.8v4.8H8.7v-4.8C8.7,323.3,10.9,321.2,13.5,321.2z
		 M8.7,335.5H133v9.6H8.7V335.5z M8.7,349.8H133v43c0,2.6-2.1,4.8-4.8,4.8H13.5c-2.6,0-4.8-2.1-4.8-4.8V349.8z"/>
	<path class="st1" d="M18.3,359.4v14.3h66.9v-14.3H18.3z M23.1,364.2h57.4v4.8H23.1V364.2z"/>
	<path class="st1" d="M110.9,357c-10.3,0.3-18.6,8.8-18.6,19.1c0,10.6,8.6,19.1,19.1,19.1c10.6,0,19.1-8.6,19.1-19.1
		c0-10.6-8.6-19.1-19.1-19.1C111.3,357,111.1,357,110.9,357z M109.1,362v2.6c-3.7,1.3-5.7,5.4-4.4,9.2c1,2.9,3.7,4.8,6.8,4.8
		c1.3,0,2.4,1.1,2.4,2.4c0,1.3-1.1,2.4-2.4,2.4c-0.7,0-1.4-0.3-1.9-0.9l-3.8,2.9c0.8,1.1,2,1.9,3.3,2.4v2.6
		c-7.8-1.3-13.1-8.7-11.8-16.5C98.3,367.7,103.1,363,109.1,362z M113.9,362c7.8,1.3,13.1,8.7,11.8,16.5c-1,6-5.7,10.8-11.8,11.8
		v-2.6c3.7-1.3,5.7-5.4,4.4-9.2c-1-2.9-3.7-4.8-6.8-4.8c-1.3,0-2.4-1.1-2.4-2.4s1.1-2.4,2.4-2.4c0.7,0,1.4,0.3,1.9,0.9l3.8-2.9
		c-0.8-1.1-2-1.9-3.3-2.4V362z"/>
</g>
</svg>
